<?xml version="1.0" encoding="UTF-8" standalone="no"?>
<svg
   width="64"
   height="64"
   version="1.1"
   id="svg1"
   sodipodi:docname="icon_hi_res.svg"
   inkscape:version="1.3 (0e150ed6c4, 2023-07-21)"
   xmlns:inkscape="http://www.inkscape.org/namespaces/inkscape"
   xmlns:sodipodi="http://sodipodi.sourceforge.net/DTD/sodipodi-0.dtd"
   xmlns="http://www.w3.org/2000/svg"
   xmlns:svg="http://www.w3.org/2000/svg">
  <defs
     id="defs1" />
  <sodipodi:namedview
     id="namedview1"
     pagecolor="#ffffff"
     bordercolor="#000000"
     borderopacity="0.25"
     inkscape:showpageshadow="2"
     inkscape:pageopacity="0.0"
     inkscape:pagecheckerboard="0"
     inkscape:deskcolor="#d1d1d1"
     inkscape:zoom="8.6952035"
     inkscape:cx="29.901543"
     inkscape:cy="38.699497"
     inkscape:window-width="1920"
     inkscape:window-height="1001"
     inkscape:window-x="-9"
     inkscape:window-y="-9"
     inkscape:window-maximized="1"
     inkscape:current-layer="svg1" />
  <path
     fill="#e0e0e0"
     d="m 24,4 a 8.0000003,8.0000003 0 0 0 -8,8 V 40.000001 H 4.0000005 v 12.000001 a 8.0000003,8.0000003 0 0 0 7.9999995,8 h 28 a 8.0000003,8.0000003 0 0 0 7.999999,-8 V 20.000001 H 60 V 12 A 8.0000003,8.0000003 0 0 0 52,4 Z"
     id="path1-8"
     style="stroke-width:4" />
  <path
     fill-opacity="0.2"
     d="m 24,4 a 8.0000003,8.0000003 0 0 0 -8,8 V 40.000001 H 4.0000005 v 12.000001 a 8.0000007,8.0000007 0 1 0 16.0000005,0 V 12 A 4.0000002,4.0000002 0 0 1 28,12 v 12.000001 h 19.999999 v -4 H 32 V 12 A 8.0000003,8.0000003 0 0 0 24,4 Z M 8.0000008,44.000002 H 16 v 8 a 4.0000002,4.0000002 0 0 1 -7.9999992,0 z"
     id="path2"
     style="stroke-width:4" />
  <path
     fill="#ff5f5f"
     d="m 19.924643,24.035949 v 19.96164 h 3.992327 7.984653 V 40.005265 H 23.91697 V 28.028277 h 7.984653 V 24.035949 H 23.91697 Z m 17.965473,1.996165 v 5.988491 h -9.980818 v 3.992327 h 9.980818 v 5.988493 l 4.990411,-3.99233 4.990413,-3.992326 -4.990413,-3.992328 z"
     id="path1"
     style="stroke-width:1.99616" />
</svg>
